<?xml version="1.0" encoding="UTF-8" standalone="no"?>
<svg
   xmlns:dc="http://purl.org/dc/elements/1.1/"
   xmlns:cc="http://creativecommons.org/ns#"
   xmlns:rdf="http://www.w3.org/1999/02/22-rdf-syntax-ns#"
   xmlns:svg="http://www.w3.org/2000/svg"
   xmlns="http://www.w3.org/2000/svg"
   xmlns:sodipodi="http://sodipodi.sourceforge.net/DTD/sodipodi-0.dtd"
   xmlns:inkscape="http://www.inkscape.org/namespaces/inkscape"
   version="1.1"
   id="svg2"
   viewBox="0 0 1213.7776 226.73249"
   height="63.988968mm"
   width="342.55502mm"
   inkscape:version="0.91 r13725"
   sodipodi:docname="logo.svg">
  <sodipodi:namedview
     pagecolor="#ffffff"
     bordercolor="#666666"
     borderopacity="1"
     objecttolerance="10"
     gridtolerance="10"
     guidetolerance="10"
     inkscape:pageopacity="0"
     inkscape:pageshadow="2"
     inkscape:window-width="1362"
     inkscape:window-height="718"
     id="namedview4293"
     showgrid="false"
     inkscape:zoom="0.24633837"
     inkscape:cx="117.72425"
     inkscape:cy="113.36628"
     inkscape:window-x="1"
     inkscape:window-y="25"
     inkscape:window-maximized="1"
     inkscape:current-layer="svg2" />
  <defs
     id="defs4" />
  <metadata
     id="metadata7">
    <rdf:RDF>
      <cc:Work
         rdf:about="">
        <dc:format>image/svg+xml</dc:format>
        <dc:type
           rdf:resource="http://purl.org/dc/dcmitype/StillImage" />
        <dc:title />
      </cc:Work>
    </rdf:RDF>
  </metadata>
  <g
     transform="translate(230.01662,-69.045862)"
     id="layer1"
     style="fill:#6699ff">
    <g
       transform="translate(134.28572,117.14286)"
       id="text4144"
       style="font-style:normal;font-weight:normal;font-size:235.93399048px;line-height:125%;font-family:sans-serif;letter-spacing:0px;word-spacing:0px;fill:#6699ff;fill-opacity:1;stroke:none;stroke-width:1px;stroke-linecap:butt;stroke-linejoin:miter;stroke-opacity:1">
      <path
         id="path4168"
         style="font-style:normal;font-variant:normal;font-weight:500;font-stretch:normal;font-family:Ubuntu;-inkscape-font-specification:'Ubuntu Medium';letter-spacing:-10px;word-spacing:0px;fill:#6699ff"
         d="m -364.30234,54.534195 63.46624,0 0,26.188673 -63.46624,0 0,-26.188673 z" />
      <path
         id="path4170"
         style="font-style:normal;font-variant:normal;font-weight:500;font-stretch:normal;font-family:Ubuntu;-inkscape-font-specification:'Ubuntu Medium';letter-spacing:-10px;word-spacing:0px;fill:#6699ff"
         d="m -246.31921,112.80989 q 16.04351,0 23.35746,-5.42648 7.31396,-5.42648 7.31396,-15.33571 0,-5.89835 -2.59528,-10.145162 -2.35934,-4.246812 -7.07802,-7.549887 -4.48274,-3.53901 -11.08889,-6.370218 -6.60616,-3.067142 -15.09978,-5.89835 -8.49362,-3.067142 -16.51538,-6.606152 -7.78582,-3.774943 -13.9201,-9.201425 -5.89835,-5.426482 -9.6733,-12.97637 -3.53901,-7.549887 -3.53901,-18.166917 0,-22.1777951 15.33571,-34.682297 15.33571,-12.740435 41.76032,-12.740435 15.33571,0 27.13241,3.53901 12.03263,3.303076 18.87472,7.313953 l -9.20143,24.0652675 q -8.02175,-4.4827458 -17.69505,-6.8420857 -9.43736,-2.3593399 -19.58252,-2.3593399 -12.03263,0 -18.87472,4.9546138 -6.60615,4.9546138 -6.60615,13.9201053 0,5.426482 2.12341,9.43736 2.35934,3.774944 6.37021,6.842085 4.24681,3.067142 9.6733,5.662416 5.66241,2.595274 12.26856,4.954614 11.56077,4.246812 20.52626,8.729558 9.20143,4.246811 15.33571,10.381095 6.37022,5.89835 9.67329,14.15604 3.30308,8.021755 3.30308,19.582521 0,22.17779 -15.80758,34.44636 -15.57164,12.03264 -45.77119,12.03264 -10.14516,0 -18.63879,-1.41561 -8.25769,-1.17967 -14.86384,-3.06714 -6.37022,-1.88747 -11.0889,-3.77494 -4.71868,-2.12341 -7.54988,-3.77495 l 8.72955,-24.3012 q 6.37022,3.53901 17.22319,7.07802 10.85296,3.53901 26.18867,3.53901 z" />
      <path
         id="path4172"
         style="font-style:normal;font-variant:normal;font-weight:500;font-stretch:normal;font-family:Ubuntu;-inkscape-font-specification:'Ubuntu Medium';letter-spacing:-10px;word-spacing:0px;fill:#6699ff"
         d="m -177.03064,73.880783 q 0,-16.279446 4.71868,-28.548013 4.95462,-12.268568 12.97637,-20.290323 8.02176,-8.25769 18.40285,-12.268568 10.3811,-4.2468117 21.23406,-4.2468117 25.480873,0 39.636913,15.8075777 14.391973,15.807577 14.391973,47.186798 0,2.35934 -0.235934,5.426481 0,2.831208 -0.235934,5.190548 l -81.397228,0 q 1.17967,14.863842 10.3811,23.121528 9.43736,8.02176 27.13241,8.02176 10.381092,0 18.874715,-1.88747 8.729558,-1.88747 13.684172,-4.01088 l 3.774944,23.35746 q -2.35934,1.17967 -6.606152,2.59528 -4.010878,1.17967 -9.43736,2.1234 -5.190548,1.17967 -11.324829,1.88748 -6.13429,0.7078 -12.5045,0.7078 -16.27945,0 -28.31208,-4.71868 -12.03264,-4.95462 -19.81846,-13.44824 -7.78582,-8.72956 -11.56076,-20.290322 -3.77495,-11.7967 -3.77495,-25.716805 z m 82.812833,-12.740436 q 0,-5.89835 -1.651537,-11.088897 -1.651538,-5.426482 -4.954616,-9.201426 -3.06714,-4.010878 -7.78582,-6.134284 -4.48275,-2.35934 -10.85296,-2.35934 -6.60616,0 -11.56077,2.595274 -4.95461,2.35934 -8.49362,6.370218 -3.30308,4.010878 -5.19055,9.201426 -1.88747,5.190547 -2.59527,10.617029 l 53.085143,0 z" />
      <path
         id="path4174"
         style="font-style:normal;font-variant:normal;font-weight:500;font-stretch:normal;font-family:Ubuntu;-inkscape-font-specification:'Ubuntu Medium';letter-spacing:-10px;word-spacing:0px;fill:#6699ff"
         d="m 36.236635,73.880783 q 0,-19.110654 -8.729558,-29.727683 -8.493624,-10.61703 -27.60427701,-10.61703 -4.01087789,0 -8.49362369,0.471868 -4.2468113,0.235934 -8.4936233,1.415604 l 0,70.544268 q 3.774944,2.59527 9.9092273,4.95461 6.37021772,2.12341 13.4482374,2.12341 15.5716433,0 22.6496633,-10.61703 7.313954,-10.617034 7.313954,-28.548017 z m 29.255814,-0.471868 q 0,14.156039 -3.774944,25.952739 -3.539009,11.796696 -10.381095,20.290326 -6.842086,8.49362 -17.223181,13.2123 -10.145162,4.71868 -23.121531,4.71868 -8.7295581,0 -16.0435118,-2.12341 -7.3139542,-2.1234 -12.0326332,-4.71868 l 0,47.8946 -28.548013,0 0,-163.030383 q 8.729557,-2.35934 21.469993,-4.482746 12.740435,-2.1234058 26.8964749,-2.1234058 14.6279071,0 26.1886731,4.4827458 11.560765,4.482746 19.582521,12.97637 8.25769,8.257689 12.504502,20.290323 4.482745,11.796699 4.482745,26.660541 z" />
      <path
         id="path4176"
         style="font-style:normal;font-variant:normal;font-weight:500;font-stretch:normal;font-family:Ubuntu;-inkscape-font-specification:'Ubuntu Medium';letter-spacing:-10px;word-spacing:0px;fill:#6699ff"
         d="m 128.32602,114.9333 q 13.21231,0 20.05439,-1.41561 l 0,-31.615152 q -2.35934,-0.707802 -6.84208,-1.415604 -4.48275,-0.707802 -9.90923,-0.707802 -4.71868,0 -9.67329,0.707802 -4.71868,0.707802 -8.72956,2.595274 -3.77494,1.887472 -6.13428,5.426482 -2.35934,3.303076 -2.35934,8.493624 0,10.145166 6.37021,14.156036 6.37022,3.77495 17.22318,3.77495 z M 125.96669,8.5270673 q 14.15603,0 23.82933,3.5390097 9.67329,3.53901 15.33571,9.909228 5.89835,6.370217 8.25769,15.571643 2.59527,8.965492 2.59527,19.818455 l 0,74.791077 q -6.60615,1.4156 -20.05439,3.30307 -13.2123,2.12341 -29.96361,2.12341 -11.0889,0 -20.29033,-2.12341 -9.201424,-2.1234 -15.807576,-6.84208 -6.370217,-4.71868 -10.145161,-12.26857 -3.53901,-7.54989 -3.53901,-18.638784 0,-10.61703 4.010878,-17.930984 4.246812,-7.313953 11.324831,-11.796699 7.07802,-4.71868 16.279448,-6.606152 9.43736,-2.123406 19.58252,-2.123406 4.71868,0 9.90923,0.707802 5.19054,0.471868 11.08889,1.887472 l 0,-4.71868 q 0,-4.954614 -1.17967,-9.437359 -1.17967,-4.482746 -4.24681,-7.785822 -2.83121,-3.53901 -7.78582,-5.426482 -4.71868,-1.887472 -12.03263,-1.887472 -9.90923,0 -18.16692,1.415604 -8.25769,1.415604 -13.448238,3.303076 L 87.981313,14.189483 q 5.426481,-1.887472 15.807577,-3.774944 10.3811,-1.8874717 22.1778,-1.8874717 z" />
      <path
         id="path4178"
         style="font-style:normal;font-variant:normal;font-weight:500;font-stretch:normal;font-family:Ubuntu;-inkscape-font-specification:'Ubuntu Medium';letter-spacing:-10px;word-spacing:0px;fill:#6699ff"
         d="m 271.02322,37.311014 q -3.53901,-1.17967 -9.90923,-2.35934 -6.13428,-1.415604 -14.39197,-1.415604 -4.71868,0 -10.14516,0.943736 -5.19055,0.943736 -7.31396,1.651538 l 0,98.856346 -28.54801,0 0,-117.495131 q 8.25769,-3.067142 20.52626,-5.662416 12.5045,-2.8312078 27.60427,-2.8312078 2.83121,0 6.60616,0.471868 3.77494,0.235934 7.54988,0.9437358 3.77495,0.471868 7.31396,1.415604 3.53901,0.707802 5.66241,1.415604 l -4.95461,24.065267 z" />
      <path
         id="path4180"
         style="font-style:normal;font-variant:normal;font-weight:500;font-stretch:normal;font-family:Ubuntu;-inkscape-font-specification:'Ubuntu Medium';letter-spacing:-10px;word-spacing:0px;fill:#6699ff"
         d="m 397.23824,73.172981 q 0,14.627907 -4.24681,26.660541 -4.24681,12.032638 -12.03263,20.526258 -7.78582,8.49362 -18.87472,13.2123 -10.85297,4.71868 -24.06527,4.71868 -13.2123,0 -24.06527,-4.71868 -10.85296,-4.71868 -18.63878,-13.2123 -7.78582,-8.49362 -12.26857,-20.526258 -4.24681,-12.032634 -4.24681,-26.660541 0,-14.627908 4.24681,-26.424607 4.48275,-12.032634 12.26857,-20.526257 8.02175,-8.493624 18.87472,-12.97637 10.85296,-4.7186797 23.82933,-4.7186797 12.97637,0 23.82933,4.7186797 11.0889,4.482746 18.87472,12.97637 7.78583,8.493623 12.03264,20.526257 4.48274,11.796699 4.48274,26.424607 z m -29.25581,0 q 0,-18.402852 -8.02176,-29.019881 -7.78582,-10.852964 -21.94186,-10.852964 -14.15604,0 -22.17779,10.852964 -7.78583,10.617029 -7.78583,29.019881 0,18.638785 7.78583,29.491749 8.02175,10.85296 22.17779,10.85296 14.15604,0 21.94186,-10.85296 8.02176,-10.852964 8.02176,-29.491749 z" />
      <path
         id="path4182"
         style="font-style:normal;font-variant:normal;font-weight:500;font-stretch:normal;font-family:Ubuntu;-inkscape-font-specification:'Ubuntu Medium';letter-spacing:-10px;word-spacing:0px;fill:#6699ff"
         d="M 445.49917,134.98769 Q 433.70247,110.68649 421.19797,79.307264 408.92941,47.69211 398.78424,11.594209 l 30.43549,0 q 2.59527,10.381096 5.89835,22.413729 3.53901,11.7967 7.31395,23.829333 4.01088,11.7967 8.02176,23.121531 4.24681,11.088898 7.78582,20.054388 3.53901,-8.96549 7.54989,-20.054388 4.01088,-11.324831 7.78582,-23.121531 4.01088,-12.032633 7.54989,-23.829333 3.53901,-12.032633 6.13428,-22.413729 l 29.49175,0 Q 506.60608,47.69211 494.10158,79.307264 481.83301,110.68649 470.03631,134.98769 l -24.53714,0 z" />
      <path
         id="path4184"
         style="font-style:normal;font-variant:normal;font-weight:500;font-stretch:normal;font-family:Ubuntu;-inkscape-font-specification:'Ubuntu Medium';letter-spacing:-10px;word-spacing:0px;fill:#6699ff"
         d="m 556.62549,134.98769 -28.54802,0 0,-123.393481 28.54802,0 0,123.393481 z m 3.06714,-159.491381 q 0,8.021755 -5.19055,12.740435 -5.19055,4.7186799 -12.26857,4.7186799 -7.31395,0 -12.5045,-4.7186799 -5.19055,-4.71868 -5.19055,-12.740435 0,-8.25769 5.19055,-12.97637 5.19055,-4.71868 12.5045,-4.71868 7.07802,0 12.26857,4.71868 5.19055,4.71868 5.19055,12.97637 z" />
      <path
         id="path4186"
         style="font-style:normal;font-variant:normal;font-weight:500;font-stretch:normal;font-family:Ubuntu;-inkscape-font-specification:'Ubuntu Medium';letter-spacing:-10px;word-spacing:0px;fill:#6699ff"
         d="m 575.97345,73.408915 q 0,-13.684172 4.24681,-25.480871 4.24682,-12.032634 12.03264,-20.762191 8.02175,-8.729558 19.34658,-13.684172 11.32484,-4.9546137 25.48088,-4.9546137 17.45911,0 33.03075,6.3702177 l -6.13428,23.357465 q -4.95461,-2.123406 -11.32483,-3.53901 -6.13428,-1.415604 -13.2123,-1.415604 -16.75132,0 -25.48088,10.61703 -8.72955,10.381095 -8.72955,29.491749 0,18.402851 8.25769,29.255815 8.25769,10.61703 27.84021,10.61703 7.31395,0 14.39197,-1.4156 7.07802,-1.41561 12.26857,-3.53901 l 4.01088,23.59339 q -4.71868,2.35934 -14.39198,4.24682 -9.43736,1.88747 -19.58252,1.88747 -15.80758,0 -27.60428,-4.71868 -11.56076,-4.95462 -19.34658,-13.44824 -7.54989,-8.72956 -11.32483,-20.526256 -3.77495,-12.032634 -3.77495,-25.952739 z" />
      <path
         id="path4188"
         style="font-style:normal;font-variant:normal;font-weight:500;font-stretch:normal;font-family:Ubuntu;-inkscape-font-specification:'Ubuntu Medium';letter-spacing:-10px;word-spacing:0px;fill:#6699ff"
         d="m 712.8793,59.724743 q 5.42648,-5.662416 11.56076,-12.032633 6.13429,-6.606152 12.03264,-12.97637 5.89835,-6.606152 11.08889,-12.504501 5.42649,-6.134284 9.20143,-10.61703 l 33.73856,0 q -11.7967,13.212304 -25.009,27.368343 -12.97637,14.156039 -26.18868,27.604277 7.07802,5.89835 14.86385,14.391973 7.78582,8.25769 15.09977,17.69505 7.31396,9.437358 13.68417,18.874718 6.37022,9.43736 10.61703,17.45912 l -33.03076,0 q -4.24681,-7.31396 -9.90922,-15.33571 -5.42649,-8.02176 -11.7967,-15.57165 -6.37022,-7.549884 -12.97637,-14.156036 -6.60615,-6.842086 -12.97637,-11.560766 l 0,56.624162 -28.54802,0 0,-178.366101 28.54802,-4.718679 0,107.821833 z" />
      <path
         id="path4190"
         style="font-style:normal;font-variant:normal;font-weight:500;font-stretch:normal;font-family:Ubuntu;-inkscape-font-specification:'Ubuntu Medium';letter-spacing:-10px;word-spacing:0px;fill:#6699ff"
         d="m 786.00906,54.534195 63.46625,0 0,26.188673 -63.46625,0 0,-26.188673 z" />
    </g>
  </g>
</svg>
